<svg width="50" height="50" viewBox="0 0 50 50" fill="none" xmlns="http://www.w3.org/2000/svg">
<path d="M28.8593 16.3935C29.6968 15.631 30.2218 14.731 30.5468 13.7435C30.8968 12.6935 31.0593 11.606 30.8468 10.481C30.7093 9.80605 30.9593 9.23105 31.5468 8.86855C32.1218 8.53105 32.7093 8.59355 33.2468 8.98105C39.6343 13.581 43.3218 19.756 44.1968 27.5935C44.7343 32.356 43.7218 36.7186 40.7593 40.5186C37.4968 44.6936 33.1593 46.931 27.8593 47.131C25.1093 47.231 22.3468 47.3186 19.6218 47.056C13.6093 46.4935 9.3843 43.281 6.9468 37.781C5.5968 34.7185 5.5718 31.4685 5.9843 28.206C6.6218 23.1311 8.7843 18.7685 12.0718 14.8935C14.5843 11.9185 15.7593 8.43105 15.6718 4.51855C15.6343 3.08105 16.7218 2.35605 18.0218 2.96855C23.2093 5.43105 26.6718 9.40605 28.4218 14.881C28.5718 15.356 28.6968 15.831 28.8593 16.3935ZM34.3343 42.2435C34.4093 42.2061 34.5343 42.156 34.6593 42.0935C37.3718 40.381 39.3343 38.0686 40.4718 35.0436C41.5218 32.2436 41.5343 29.3935 41.0593 26.4935C40.2343 21.456 37.9593 17.181 34.2843 13.6435C34.1468 13.506 33.9843 13.3935 33.7968 13.231C33.7468 13.4185 33.7093 13.506 33.6968 13.606C33.1218 16.106 31.7968 18.106 29.7093 19.5935C29.4843 19.756 29.2593 19.8935 29.0218 20.031C27.4593 20.9685 26.4093 20.456 26.1968 18.6435C25.7593 14.8685 24.1968 11.6185 21.5093 8.94355C20.6718 8.10605 19.6968 7.40605 18.7593 6.63105C18.6343 6.80605 18.5968 6.83105 18.5968 6.86855C18.1093 10.9685 16.3718 14.4685 13.7093 17.606C10.2968 21.6435 8.6968 26.3685 8.7218 31.656C8.7343 35.856 10.3593 39.281 13.7343 41.8435C13.8468 41.931 13.9843 41.9935 14.2218 42.131C14.0718 41.756 13.9718 41.506 13.8843 41.256C13.7968 41.006 13.6968 40.7436 13.6468 40.4811C12.4093 33.6561 14.4468 27.956 19.5593 23.331C20.3843 22.581 20.8593 22.556 21.8218 23.081C24.0468 24.306 25.6843 26.081 26.6843 28.431C26.9093 28.9685 27.0968 29.531 27.2968 30.081C27.3593 30.081 27.4218 30.081 27.4843 30.081C27.6093 29.231 27.7718 28.381 27.8343 27.5185C27.8843 26.8185 28.0593 26.256 28.7468 25.956C29.4343 25.6685 30.0218 25.881 30.5093 26.381C31.2593 27.156 32.0718 27.8935 32.6968 28.7685C34.9343 31.8435 35.8718 35.2936 35.2718 39.0811C35.1093 40.1436 34.6593 41.181 34.3343 42.2435ZM30.4593 30.581C29.3968 32.8185 28.6343 33.756 27.3093 34.5685C25.9218 35.406 24.9218 34.8685 24.6718 33.256C24.4968 32.0935 24.2593 30.9186 23.8968 29.7936C23.3968 28.2311 22.3968 26.9935 20.9843 26.1185C20.8968 26.181 20.8468 26.206 20.7968 26.2435C17.0468 29.906 15.5593 34.3436 16.4718 39.4811C16.8968 41.9311 18.4843 43.631 20.9718 44.006C22.8218 44.281 24.7593 44.2436 26.6218 44.0436C29.5718 43.7311 31.4718 41.931 32.2343 39.0935C32.7718 37.0935 32.4718 35.0685 31.7093 33.156C31.3843 32.3185 30.9093 31.5185 30.4593 30.581Z" fill="#EC4537"/>
</svg>
