<svg width="298" height="1211" viewBox="0 0 298 1211" fill="none" xmlns="http://www.w3.org/2000/svg">
<path d="M17 1099H164L160 1129H13L17 1099Z" fill="#31A951"/>
<path d="M77 599H224L220 629H73L77 599Z" fill="#31A951"/>
<path d="M136 92H283L279 124.5H132L136 92Z" fill="#31A951"/>
<path d="M28.5 999H175.5L171.5 1029H24.5L28.5 999Z" fill="#EC4537"/>
<path d="M64.5 699H211.5L207.5 729H60.5L64.5 699Z" fill="#EC4537"/>
<path d="M111 298H258L254 328H107L111 298Z" fill="#EC4537"/>
<path d="M41.5 899H188.5L184.5 929H37.5L41.5 899Z" fill="#0F6BE3"/>
<path d="M125 195H272L268 227.5H121L125 195Z" fill="#0F6BE3"/>
<path d="M88 499H235L231 529H84L88 499Z" fill="#0F6BE3"/>
<path d="M53.5 799H200.5L196.5 829H49.5L53.5 799Z" fill="#F3A700"/>
<path d="M101 399H248L244 429H97L101 399Z" fill="#F3A700"/>
<rect x="143.026" width="12" height="1218" transform="rotate(6.74361 143.026 0)" fill="#BECDEA"/>
<rect x="286.026" width="12" height="1218" transform="rotate(6.74361 286.026 0)" fill="#BECDEA"/>
</svg>
