<svg width="50" height="50" viewBox="0 0 50 50" fill="none" xmlns="http://www.w3.org/2000/svg">
<path d="M19.7281 26.2625C17.6156 25.7 15.7281 24.8 14.0531 23.4875C13.8281 23.3125 13.5781 23.1375 13.3781 22.925C11.4531 20.7625 8.94062 19.3625 6.65312 17.675C5.70312 16.975 4.70313 16.3125 3.75313 15.6125C2.39063 14.625 1.69063 13.275 1.65313 11.6125C1.61562 9.9875 1.61562 8.3625 1.65313 6.7375C1.70312 4.7125 3.10312 3.375 5.14062 3.3625C6.16562 3.3625 7.17813 3.3625 8.31563 3.3625C8.31563 2.8375 8.31563 2.35 8.31563 1.85C8.32813 0.700002 8.99062 0.0250008 10.1406 0.0125008C17.3281 7.62753e-07 24.5156 7.62753e-07 31.7031 0.0125008C32.7031 0.0125008 33.4531 0.737502 33.4656 1.6625C33.4781 2.6375 32.7156 3.35 31.6156 3.35C25.2406 3.35 18.8656 3.35 12.4906 3.35C12.2406 3.35 11.9906 3.35 11.7281 3.35C11.6906 3.4875 11.6406 3.575 11.6406 3.675C11.6531 6.65 11.5656 9.6375 11.7156 12.6125C11.9781 17.6625 15.7656 22.0375 20.7406 23.025C23.8406 23.6375 27.0281 23.75 30.0781 22.8C35.1531 21.2125 38.2406 16.85 38.2781 11.4875C38.3031 8.2125 38.2781 4.95 38.2781 1.675C38.2781 0.487503 38.8156 0 40.0781 0C41.0781 0 41.6031 0.575 41.6156 1.6875C41.6156 2.0625 41.6156 2.4375 41.6156 2.8125C41.6156 2.95 41.6281 3.1 41.6531 3.35C42.1531 3.35 42.6406 3.35 43.1281 3.35C43.7156 3.35 44.2906 3.35 44.8781 3.35C46.8031 3.375 48.2281 4.7 48.2906 6.6125C48.3531 8.325 48.3531 10.025 48.2906 11.7375C48.2281 13.3125 47.5406 14.625 46.2531 15.575C43.5156 17.5875 40.7656 19.575 38.0531 21.6C37.1406 22.2875 36.3406 23.125 35.4281 23.8125C33.8781 24.975 32.1281 25.7375 30.1781 26.2375C30.8531 30.275 31.5156 34.2875 32.1781 38.2625C33.1781 38.3375 34.1281 38.3125 35.0281 38.5125C36.9281 38.95 38.1781 40.2 38.6406 42.1C39.1031 44 39.4531 45.925 39.8281 47.85C40.0656 49.1125 39.3281 49.9875 38.0531 49.9875C32.1156 50 26.1781 50 20.2406 49.9875C19.1781 49.9875 18.4531 49.275 18.4531 48.3C18.4531 47.3375 19.2031 46.6375 20.2531 46.6375C25.2781 46.6375 30.2906 46.6375 35.3156 46.6375C35.5656 46.6375 35.8156 46.6375 36.1781 46.6375C35.8781 45.2625 35.6656 43.925 35.3031 42.65C35.0781 41.9 34.3781 41.65 33.6031 41.65C31.3781 41.6625 29.1406 41.65 26.9156 41.65C23.4406 41.65 19.9531 41.65 16.4781 41.65C15.0906 41.65 14.6031 42.0375 14.3406 43.3875C14.0031 45.0625 13.6906 46.7375 13.3406 48.4125C13.1281 49.4625 12.3156 50.0375 11.3531 49.85C10.4406 49.675 9.87813 48.825 10.0656 47.8125C10.4281 45.8875 10.7781 43.9625 11.2156 42.0625C11.7156 39.9125 13.5531 38.4625 15.7656 38.3375C16.3906 38.3 17.0156 38.3375 17.7031 38.3375C18.3781 34.325 19.0531 30.325 19.7281 26.2625ZM21.1281 38.3C23.7156 38.3 26.2406 38.3 28.7781 38.3C28.7656 38.1625 28.7781 38.075 28.7656 38C28.1656 34.35 27.5656 30.7 26.9781 27.05C26.9281 26.7125 26.7531 26.6625 26.4656 26.675C25.5031 26.6875 24.5531 26.7 23.5906 26.675C23.1656 26.6625 23.0281 26.8 22.9656 27.225C22.6156 29.425 22.2406 31.6125 21.8781 33.8C21.6156 35.275 21.3781 36.7625 21.1281 38.3ZM41.3781 15.0375C42.3406 14.35 43.3906 13.65 44.3781 12.875C44.6406 12.675 44.8781 12.25 44.8906 11.925C44.9406 10.2125 44.9156 8.4875 44.9156 6.7375C43.7531 6.7375 42.7031 6.7375 41.6656 6.7375C41.5656 9.5 41.4781 12.25 41.3781 15.0375ZM5.00313 6.725C5.00313 8.45 4.99062 10.1125 5.01562 11.775C5.02812 12.35 5.36563 12.775 5.85313 13.1C6.59063 13.6 7.32813 14.1125 8.06563 14.625C8.24063 14.75 8.41563 14.8625 8.49063 14.9125C8.41563 12.1875 8.32813 9.4875 8.25313 6.7375C7.17813 6.725 6.12813 6.725 5.00313 6.725Z" fill="#F3A700"/>
</svg>
