<svg width="50" height="50" viewBox="0 0 50 50" fill="none" xmlns="http://www.w3.org/2000/svg">
<path d="M11.6379 23.8017C11.6379 17.6409 11.6379 11.4676 11.6379 5.30675C11.6379 3.08236 12.5626 1.39533 14.6121 0.458085C15.2369 0.170664 15.9742 0.0207055 16.6615 0.0207055C26.0964 -0.00428766 35.5313 -0.00428843 44.9662 0.00820813C47.7779 0.00820813 49.9773 2.19511 49.9773 5.00683C49.9898 16.1913 50.0148 27.3757 49.9648 38.5601C49.9398 44.321 45.4536 49.2322 39.7301 49.882C39.1303 49.9445 38.5305 49.9944 37.9306 49.9944C27.7709 50.0069 17.5987 49.9944 7.43903 49.9944C3.96498 49.9944 0.753366 47.5326 0.241007 44.0961C-0.083904 41.8967 -0.046412 39.6098 0.153533 37.3854C0.353478 35.111 2.42791 33.4615 4.71478 33.3365C5.31461 33.3115 5.92694 33.299 6.52678 33.324C7.47652 33.3615 8.18882 34.0988 8.17632 35.0111C8.16383 35.9358 7.45152 36.6231 6.47679 36.6481C6.00192 36.6606 5.51455 36.6356 5.03969 36.6606C3.97748 36.7106 3.35265 37.3479 3.34016 38.4226C3.32766 39.7973 3.31516 41.1719 3.34016 42.5465C3.39014 44.8709 5.13966 46.6079 7.43903 46.6204C9.78838 46.6329 11.6129 44.9208 11.6254 42.5715C11.6629 36.2982 11.6379 30.0499 11.6379 23.8017ZM13.7373 46.6454C14.0747 46.6454 14.2497 46.6454 14.4371 46.6454C22.3349 46.6454 30.2203 46.6454 38.1181 46.6454C38.6554 46.6454 39.2053 46.6204 39.7301 46.5329C43.804 45.8081 46.6282 42.3965 46.6282 38.1852C46.6407 27.2757 46.6282 16.3537 46.6282 5.44421C46.6282 3.89464 46.0784 3.34479 44.5163 3.34479C35.3938 3.34479 26.2713 3.34479 17.1489 3.34479C15.5243 3.34479 14.9869 3.88214 14.9869 5.51919C14.9869 17.4159 14.9745 29.3001 14.9994 41.1969C15.0119 43.0589 14.887 44.8834 13.7373 46.6454Z" fill="#F3A700"/>
<path d="M34.9689 34.9986C33.3069 34.9986 31.6449 34.9986 29.9828 34.9986C28.9206 34.9986 28.1833 34.3238 28.1708 33.3615C28.1458 32.3868 28.9206 31.6495 29.9953 31.6495C33.3194 31.6495 36.6435 31.6495 39.9801 31.6495C41.0798 31.6495 41.8295 32.3493 41.8171 33.3365C41.8171 34.3238 41.0673 34.9986 39.9676 34.9986C38.293 34.9986 36.631 34.9986 34.9689 34.9986Z" fill="#F3A700"/>
<path d="M35.0189 14.9916C36.656 14.9916 38.3055 14.9916 39.9426 14.9916C41.0548 14.9916 41.7921 15.6539 41.8045 16.6411C41.817 17.6534 41.0548 18.3407 39.9051 18.3407C36.6185 18.3407 33.3319 18.3407 30.0453 18.3407C28.9081 18.3407 28.1333 17.6409 28.1458 16.6411C28.1583 15.6539 28.9081 14.9916 30.0203 14.9916C31.6948 14.9791 33.3569 14.9916 35.0189 14.9916Z" fill="#F3A700"/>
<path d="M35.0564 23.3518C36.6185 23.3518 38.1806 23.3518 39.7301 23.3518C40.7549 23.3518 41.4672 24.0266 41.4797 24.9763C41.4922 25.9511 40.7799 26.6509 39.7176 26.6509C36.556 26.6634 33.3944 26.6634 30.2328 26.6509C29.183 26.6509 28.4582 25.9386 28.4707 24.9638C28.4832 24.0266 29.2205 23.3643 30.2453 23.3518C31.8573 23.3393 33.4569 23.3518 35.0564 23.3518Z" fill="#F3A700"/>
<path d="M22.4974 14.9916C22.8098 14.9916 23.1222 14.9916 23.4346 14.9916C24.4094 15.0041 25.1342 15.6789 25.1716 16.5911C25.2091 17.5159 24.5343 18.2657 23.5721 18.3282C22.8723 18.3782 22.16 18.3782 21.4477 18.3282C20.4729 18.2657 19.8231 17.5284 19.8481 16.6036C19.8731 15.6789 20.5854 15.0041 21.5601 14.9916C21.8726 14.9791 22.185 14.9916 22.4974 14.9916Z" fill="#F3A700"/>
<path d="M22.4974 34.9986C22.185 34.9986 21.8726 34.9986 21.5601 34.9986C20.5854 34.9736 19.8731 34.3113 19.8481 33.3865C19.8231 32.4493 20.4729 31.712 21.4477 31.6495C22.1475 31.612 22.8598 31.612 23.5721 31.6495C24.5343 31.712 25.2091 32.4743 25.1716 33.3865C25.1342 34.2988 24.4219 34.9736 23.4471 34.9861C23.1222 34.9986 22.8098 34.9986 22.4974 34.9986Z" fill="#F3A700"/>
<path d="M22.4599 26.6384C22.185 26.6384 21.9225 26.6509 21.6476 26.6384C20.7978 26.5759 20.1605 25.8636 20.148 25.0138C20.1355 24.1391 20.8103 23.4018 21.6851 23.3643C22.2225 23.3393 22.7723 23.3393 23.3097 23.3643C24.1594 23.4018 24.8092 24.1141 24.8342 24.9638C24.8592 25.8386 24.1969 26.5759 23.3222 26.6384C23.0472 26.6509 22.7473 26.6384 22.4599 26.6384Z" fill="#F3A700"/>
</svg>
