<svg width="50" height="50" viewBox="0 0 50 50" fill="none" xmlns="http://www.w3.org/2000/svg">
<path d="M0 25.0125C0 19.5125 0 14.0125 0 8.5125C0 3.6625 3.65 0 8.4875 0C19.5 0 30.525 0 41.5375 0C46.3375 0 50 3.6625 50 8.4625C50 19.475 50 30.5 50 41.5125C50 46.3125 46.3375 49.9875 41.55 49.9875C30.5125 49.9875 19.475 49.9875 8.4375 49.9875C3.6875 49.9875 0.0125 46.3 0 41.55C0 36.05 0 30.5375 0 25.0125ZM3.3375 25.0125C3.3375 30.5125 3.325 36.0125 3.3375 41.5125C3.35 44.55 5.45 46.6625 8.4875 46.675C19.5 46.6875 30.525 46.6875 41.5375 46.675C44.5375 46.675 46.65 44.55 46.65 41.5375C46.6625 30.525 46.6625 19.5 46.65 8.4875C46.65 5.4875 44.5375 3.3625 41.5375 3.3625C30.525 3.35 19.5 3.35 8.4875 3.3625C7.9375 3.3625 7.35 3.425 6.825 3.5875C4.6 4.325 3.35 6.1125 3.3375 8.5125C3.3375 14.0125 3.3375 19.5125 3.3375 25.0125Z" fill="#0F6BE3"/>
<path d="M33.1375 27.9375C34.5375 26.525 35.9125 25.15 37.3 23.7625C38.3375 22.7125 39.3875 21.6625 40.4375 20.625C41.225 19.8375 42.225 19.7875 42.925 20.4875C43.625 21.175 43.575 22.2 42.8 22.9875C40.125 25.675 37.45 28.3625 34.7625 31.0375C33.85 31.95 33.1875 32 32.1125 31.2875C30.9375 30.5 29.7625 29.7125 28.525 28.8875C26.725 30.7125 24.925 32.525 23.1125 34.3375C22.1875 35.275 21.5125 35.325 20.4125 34.5875C19.4125 33.9125 18.4 33.25 17.4375 32.525C17 32.2 16.7625 32.275 16.4 32.6375C14.1625 34.9125 11.9 37.1625 9.6625 39.4125C9.15 39.925 8.5625 40.1625 7.85 39.9375C7.1875 39.725 6.75 39.25 6.7375 38.575C6.7375 38.1125 6.8625 37.525 7.175 37.2125C9.925 34.4 12.7125 31.6125 15.5 28.85C16.1375 28.225 16.9 28.1875 17.6625 28.7C18.3125 29.125 18.9375 29.5625 19.575 30C20.2 30.4125 20.8125 30.8375 21.475 31.275C23.25 29.5 25.0125 27.725 26.775 25.95C27.825 24.8875 28.4375 24.825 29.675 25.6375C30.8125 26.375 31.95 27.1375 33.1375 27.9375Z" fill="#0F6BE3"/>
<path d="M14.0125 7.375C14.825 7.375 15.6375 7.3625 16.45 7.375C17.45 7.3875 18.1375 8.05 18.1625 8.975C18.1875 9.9625 17.5375 10.6625 16.5 10.6875C14.8375 10.7125 13.175 10.725 11.5125 10.6875C10.4875 10.6625 9.8375 9.9375 9.8625 8.9625C9.9 8.0375 10.5875 7.3875 11.5875 7.375C12.4 7.3625 13.2125 7.375 14.0125 7.375Z" fill="#0F6BE3"/>
</svg>
