<svg width="50" height="50" viewBox="0 0 50 50" fill="none" xmlns="http://www.w3.org/2000/svg">
<path d="M25.0187 18.3342C31.5796 18.3342 38.1405 18.3467 44.7013 18.3342C46.9133 18.3342 48.5879 19.2339 49.5126 21.2584C49.825 21.9333 49.975 22.7456 49.975 23.4954C50.0125 28.9565 50 34.4051 49.9875 39.8663C49.9875 42.828 47.838 44.99 44.8638 45.0025C38.9653 45.015 33.0792 45.0025 27.1807 45.0025C19.9325 45.0025 12.6843 45.0025 5.44864 45.0025C2.04949 45.0025 0 42.953 0 39.5664C0 34.2802 0 28.994 0 23.6953C0 20.4211 2.06198 18.3592 5.34866 18.3467C11.897 18.3342 18.4579 18.3342 25.0187 18.3342ZM24.9937 41.6658C31.5296 41.6658 38.078 41.6658 44.6138 41.6658C46.0635 41.6658 46.6508 41.066 46.6508 39.6163C46.6508 34.3302 46.6508 29.0315 46.6508 23.7453C46.6508 22.2207 46.076 21.6458 44.5264 21.6458C31.4921 21.6458 18.4579 21.6583 5.41115 21.6583C3.92402 21.6583 3.33667 22.2457 3.33667 23.7328C3.33667 28.9815 3.33667 34.2302 3.33667 39.4789C3.33667 41.1035 3.88653 41.6533 5.49863 41.6533C11.997 41.6658 18.4954 41.6658 24.9937 41.6658Z" fill="#0F6BE3"/>
<path d="M24.9937 14.9975C18.8703 14.9975 12.7593 14.9975 6.63583 14.9975C5.77354 14.9975 5.1487 14.5726 4.91126 13.8353C4.69881 13.1854 4.92376 12.3732 5.52361 12.0107C5.87352 11.7983 6.3359 11.6733 6.7483 11.6733C18.7828 11.6608 30.8048 11.6608 42.8393 11.6608C43.1517 11.6608 43.4641 11.6483 43.7765 11.6983C44.6388 11.8483 45.1887 12.5731 45.1387 13.4354C45.0887 14.2602 44.4389 14.91 43.6141 14.9725C43.4641 14.985 43.3267 14.9725 43.1767 14.9725C37.1157 14.9975 31.0547 14.9975 24.9937 14.9975Z" fill="#0F6BE3"/>
<path d="M24.9938 8.32417C20.02 8.32417 15.0462 8.32417 10.0725 8.32417C8.91028 8.32417 8.16046 7.66184 8.16046 6.64959C8.16046 5.63734 8.91028 5 10.085 5C20.0325 5 29.98 5 39.9275 5C40.8523 5 41.4771 5.3874 41.7146 6.08723C41.9645 6.82455 41.7521 7.63684 41.1022 8.01175C40.7648 8.2117 40.3274 8.31167 39.9275 8.31167C34.9538 8.33667 29.98 8.32417 24.9938 8.32417Z" fill="#0F6BE3"/>
<path d="M31.6421 31.6683C31.6421 35.3424 28.6803 38.3167 25.0188 38.3167C21.3072 38.3167 18.3454 35.3674 18.3454 31.6558C18.3454 27.9443 21.2947 24.9825 25.0063 24.9825C28.7053 24.9825 31.6421 27.9443 31.6421 31.6683ZM24.9688 34.98C26.7933 34.9925 28.3304 33.4804 28.3179 31.6683C28.3179 29.8313 26.8183 28.3442 24.9813 28.3442C23.1692 28.3442 21.6821 29.8063 21.6571 31.6184C21.6321 33.4304 23.1442 34.9675 24.9688 34.98Z" fill="#0F6BE3"/>
</svg>
