<svg width="50" height="50" viewBox="0 0 50 50" fill="none" xmlns="http://www.w3.org/2000/svg">
<path d="M25.026 2.75057C37.351 2.83807 47.2635 12.8006 47.1885 25.0256C47.1135 37.3631 37.1135 47.2881 24.851 47.1881C12.501 47.1006 2.63845 37.0631 2.75095 24.7256C2.86345 12.5756 12.901 2.66307 25.026 2.75057ZM17.9135 20.0006C17.4385 21.7631 17.4759 28.8006 17.9509 29.9256C22.6509 29.2381 27.3509 29.2506 32.1134 29.9381C32.4634 26.5881 32.476 23.3006 32.101 19.9881C27.3135 20.6881 22.626 20.7006 17.9135 20.0006ZM7.58845 33.4006C9.75095 32.2131 11.9384 31.3256 14.2634 30.7881C14.8259 30.6631 14.926 30.4131 14.8635 29.8881C14.5635 27.1506 14.501 24.4006 14.726 21.6506C14.7885 20.9506 14.8384 20.2506 14.8884 19.7006C12.4009 18.7506 10.0009 17.8506 7.57595 16.9256C5.10095 22.3131 5.07595 27.7881 7.58845 33.4006ZM42.3009 33.1006C44.8009 29.0506 44.7635 19.6506 42.2635 16.7006C40.0885 17.9006 37.7884 18.7756 35.3634 19.3756C35.2259 19.4131 35.076 19.7506 35.101 19.9256C35.4385 23.3006 35.4384 26.6631 35.076 30.0256C35.0385 30.3756 35.1009 30.5381 35.4884 30.6256C37.8634 31.1381 40.1259 31.9506 42.3009 33.1006ZM31.6759 17.0381C31.2259 14.4881 30.5385 12.0881 29.3885 9.82557C28.701 8.46307 27.901 7.17557 26.601 6.27557C25.5135 5.52557 24.3885 5.48807 23.351 6.28807C22.701 6.78807 22.101 7.40057 21.6135 8.05057C20.3135 9.81307 19.5635 11.8506 18.976 13.9381C18.6885 14.9506 18.476 15.9756 18.226 17.0256C22.776 17.7381 27.1759 17.7381 31.6759 17.0381ZM18.3259 32.9131C18.3259 33.0006 18.301 33.0631 18.3135 33.1256C18.726 35.4756 19.3885 37.7381 20.426 39.8881C21.0385 41.1631 21.776 42.3756 22.8635 43.3256C24.2635 44.5381 25.6885 44.5631 27.0635 43.3381C27.551 42.9006 28.001 42.3881 28.376 41.8506C30.026 39.4631 30.8635 36.7506 31.4635 33.9506C31.5385 33.6131 31.576 33.2756 31.626 32.9256C27.1385 32.2131 22.7384 32.2131 18.3259 32.9131ZM9.12595 35.8381C10.976 38.9256 16.5885 43.1131 18.8135 43.0631C17.026 40.1006 15.8885 36.9131 15.3385 33.5256C13.8135 33.6631 10.401 34.9506 9.12595 35.8381ZM31.1885 43.1131C35.226 41.7631 38.4259 39.3256 40.8885 35.8006C38.8885 34.7006 36.851 33.9381 34.6385 33.4631C34.0634 36.9131 32.926 40.1006 31.1885 43.1131ZM9.08845 14.1381C11.0385 15.2256 13.0885 16.0006 15.3135 16.4756C15.876 13.0381 17.026 9.82557 18.8385 6.82557C15.776 7.55057 11.426 10.5381 9.08845 14.1381ZM40.8385 14.1381C39.0135 11.0506 33.5384 6.95057 31.1134 6.85057C32.9259 9.82557 34.051 13.0381 34.626 16.4756C36.851 15.9881 38.876 15.2256 40.8385 14.1381Z" fill="#31A951"/>
</svg>
