<svg width="50" height="50" viewBox="0 0 50 50" fill="none" xmlns="http://www.w3.org/2000/svg">
<path d="M12.0844 5.75558C11.9469 5.38058 11.8094 5.08058 11.7094 4.76808C11.3969 3.78058 11.9844 2.86808 13.0219 2.80558C14.0594 2.75558 15.1094 2.71808 16.1469 2.83058C16.6094 2.88058 17.1094 3.21808 17.4594 3.55558C19.7844 5.85558 22.0844 8.18058 24.3844 10.5056C24.5594 10.6806 24.7094 10.8931 24.9094 11.1431C25.1344 10.9431 25.2844 10.8056 25.4219 10.6681C27.7719 8.30558 30.1219 5.94308 32.4469 3.55558C32.9969 2.99308 33.5844 2.70558 34.3844 2.75558C35.1344 2.79308 35.8844 2.75558 36.6344 2.76808C37.9844 2.78058 38.6219 3.73058 38.1469 4.99308C38.0719 5.20558 37.9719 5.41808 37.8469 5.73058C38.2469 5.73058 38.5844 5.73058 38.9219 5.73058C40.1719 5.73058 41.4219 5.71808 42.6719 5.73058C45.2219 5.75558 47.0844 7.55558 47.2094 10.0931C47.2094 10.2181 47.2094 10.3431 47.2094 10.4681C47.2094 21.1306 47.2094 31.8056 47.2094 42.4681C47.2094 44.5306 46.3469 46.0556 44.4344 46.8681C43.8719 47.1056 43.2219 47.2056 42.6094 47.2056C30.8594 47.2306 19.1094 47.2306 7.35938 47.2181C4.64688 47.2181 2.77188 45.3306 2.75938 42.6056C2.74688 31.8556 2.74688 21.1056 2.75938 10.3556C2.75938 7.61808 4.67188 5.75558 7.43438 5.74308C8.95938 5.75558 10.4969 5.75558 12.0844 5.75558ZM19.4219 15.8181C18.9219 15.9056 18.5094 15.9681 18.0969 16.0681C17.1219 16.2806 16.5344 16.0181 16.1344 15.1056C15.2844 13.1431 14.4344 11.1681 13.6094 9.19308C13.4594 8.84308 13.2844 8.73058 12.9219 8.73058C11.1094 8.74308 9.29688 8.73058 7.48438 8.74308C6.24688 8.74308 5.70938 9.29308 5.70938 10.5306C5.70938 21.1806 5.70938 31.8181 5.70938 42.4681C5.70938 43.7431 6.24688 44.2931 7.52188 44.2931C19.1469 44.2931 30.7719 44.2931 42.3844 44.2931C43.6344 44.2931 44.1969 43.7181 44.1969 42.4556C44.2094 31.7931 44.2094 21.1306 44.2219 10.4556C44.2219 9.25558 43.6719 8.69308 42.4719 8.68058C40.6344 8.66808 38.8094 8.68058 36.9719 8.66808C36.6094 8.66808 36.4219 8.78058 36.2844 9.13058C35.4594 11.1056 34.6094 13.0806 33.7594 15.0431C33.3719 15.9306 32.7594 16.2306 31.7969 16.0431C31.3969 15.9681 30.9844 15.9056 30.5219 15.8181C30.1969 16.8431 29.8844 17.8306 29.5969 18.8181C29.5219 19.0681 29.5219 19.3556 29.5719 19.6056C30.4719 24.1806 31.3719 28.7556 32.2969 33.3181C32.4469 34.0431 32.2844 34.6056 31.7594 35.1306C29.9094 36.9931 28.0719 38.8681 26.2344 40.7306C25.3969 41.5806 24.5969 41.5806 23.7469 40.7306C21.8969 38.8931 20.0719 37.0431 18.2094 35.2181C17.6344 34.6556 17.4844 34.0556 17.6469 33.2931C18.4719 29.3431 19.2844 25.3931 20.0844 21.4306C20.2469 20.6431 20.5594 19.8056 20.4344 19.0431C20.2719 17.9806 19.7844 16.9306 19.4219 15.8181ZM24.9469 37.5306C26.1969 36.3306 27.4719 35.0931 28.7719 33.8931C29.1719 33.5181 29.2719 33.1681 29.1594 32.6306C28.5469 29.7181 27.9719 26.8056 27.3844 23.8931C27.1594 22.7931 26.9344 21.6931 26.7094 20.5681C26.0719 20.5681 25.4969 20.5556 24.9094 20.5681C24.3594 20.5806 23.6469 20.4306 23.2969 20.7056C22.9719 20.9681 22.9969 21.6931 22.8969 22.2306C22.1844 25.7181 21.4844 29.1931 20.7969 32.6931C20.7469 32.9681 20.7219 33.3931 20.8844 33.5556C22.2344 34.9181 23.6344 36.2556 24.9469 37.5306ZM34.2594 6.35558C32.4469 8.10558 30.3094 10.1931 28.1594 12.2681C28.6719 12.3806 29.1969 12.5181 29.7219 12.6056C30.2969 12.7056 30.9719 13.0056 31.4094 12.8056C31.7969 12.6181 31.9344 11.8681 32.1469 11.3556C32.9344 9.54308 33.6969 7.70558 34.2594 6.35558ZM21.5469 12.3431C19.5969 10.2806 17.5844 8.15558 15.5719 6.03058C16.4219 8.21808 17.3219 10.3556 18.2594 12.4806C18.3344 12.6681 18.6469 12.8931 18.8219 12.8681C19.8219 12.7056 20.8219 12.4806 21.5469 12.3431ZM27.6344 15.2806C25.8219 14.5931 24.0969 14.6306 22.3219 15.2806C22.5469 15.9681 22.7719 16.6806 23.0344 17.3806C23.0719 17.4931 23.2844 17.6056 23.4094 17.6056C24.4469 17.6181 25.4969 17.6306 26.5344 17.6056C26.6719 17.6056 26.8969 17.4681 26.9469 17.3431C27.1844 16.6681 27.3969 15.9681 27.6344 15.2806Z" fill="#0F6BE3"/>
</svg>
