<svg width="50" height="50" viewBox="0 0 50 50" fill="none" xmlns="http://www.w3.org/2000/svg">
<g clip-path="url(#clip0_98_93)">
<path d="M25.05 0C38.8 0 50.0125 11.225 50 24.975C50 38.875 38.8 50.0125 24.8375 50C11.1125 49.9875 -0.0124895 38.7125 1.05234e-05 24.825C0.0125105 11.15 11.2625 0 25.05 0ZM46.6625 25.0375C46.7125 13.075 37.0625 3.4 25 3.3375C13.175 3.275 3.42501 12.95 3.35001 24.8C3.27501 36.85 12.9125 46.6125 24.925 46.65C36.9125 46.7 46.6 37.05 46.6625 25.0375Z" fill="#EC4537"/>
<path d="M26.0375 6.66251C32.775 6.66251 39.7375 11.65 42.3 19C42.975 20.925 43.2625 22.9125 43.3375 24.9375C43.375 26.0125 42.675 26.8125 41.6875 26.8375C40.725 26.8625 40.0125 26.0875 39.975 25C39.8125 19.0125 37.1125 14.525 31.85 11.675C24.7625 7.83751 15.525 10.7375 11.775 17.875C10.6125 20.0875 9.98751 22.4375 9.98751 24.9375C9.98751 26.0875 9.26251 26.8625 8.27501 26.8375C7.27501 26.8 6.58751 25.9875 6.63751 24.8625C6.88751 18.2 9.76251 13 15.3875 9.40001C18.3125 7.53751 21.55 6.70001 26.0375 6.66251Z" fill="#EC4537"/>
<path d="M25.1 23.275C25.65 23.3875 26.2125 23.45 26.7375 23.6125C27.075 23.725 27.25 23.6625 27.4875 23.425C29.025 21.875 30.5625 20.325 32.125 18.7875C32.7375 18.1875 33.4625 18.1 34.1875 18.4875C34.8 18.825 35.175 19.525 35 20.225C34.9 20.6 34.6625 21 34.3875 21.275C32.9375 22.7625 31.4625 24.2375 29.975 25.6875C29.65 26 29.5625 26.25 29.725 26.7C30.575 29.25 29.3875 31.875 26.9625 32.9C24.5375 33.925 21.825 32.95 20.5625 30.575C18.7875 27.3125 21.2625 23.35 25.1 23.275ZM26.65 28.35C26.65 27.4125 25.9375 26.6625 25.025 26.65C24.125 26.6375 23.375 27.3875 23.3625 28.3125C23.35 29.25 24.075 29.9875 24.9875 30C25.9 30.0125 26.6375 29.275 26.65 28.35Z" fill="#EC4537"/>
<path d="M24.925 40C23.275 40 21.6375 40 19.9875 40C18.9 40 18.125 39.275 18.1375 38.3125C18.15 37.3625 18.9125 36.675 19.9625 36.6625C23.3125 36.6625 26.6625 36.6625 30.0125 36.6625C31.0625 36.6625 31.825 37.3625 31.825 38.325C31.825 39.275 31.0625 39.9875 30.025 40C28.3375 40.0125 26.6375 40 24.925 40Z" fill="#EC4537"/>
</g>
<defs>
<clipPath id="clip0_98_93">
<rect width="50" height="50" fill="white"/>
</clipPath>
</defs>
</svg>
