<svg width="190" height="35" viewBox="0 0 190 35" fill="none" xmlns="http://www.w3.org/2000/svg">
<path d="M9.80256 34.7727C8.2429 34.7727 6.90057 34.5682 5.77557 34.1591C4.65909 33.75 3.74716 33.2088 3.03977 32.5355C2.33239 31.8622 1.80398 31.125 1.45455 30.3239L4.74006 28.9688C4.97017 29.3438 5.27699 29.7401 5.66051 30.1577C6.05256 30.5838 6.58097 30.946 7.24574 31.2443C7.91903 31.5426 8.78409 31.6918 9.84091 31.6918C11.2898 31.6918 12.4872 31.3381 13.4332 30.6307C14.3793 29.9318 14.8523 28.8153 14.8523 27.2812V23.4205H14.6094C14.3793 23.8381 14.0469 24.3026 13.6122 24.8139C13.1861 25.3253 12.598 25.7685 11.848 26.1435C11.098 26.5185 10.1222 26.706 8.92045 26.706C7.36932 26.706 5.97159 26.3437 4.72727 25.6193C3.49148 24.8864 2.51136 23.8082 1.78693 22.3849C1.07102 20.9531 0.713068 19.1932 0.713068 17.1051C0.713068 15.017 1.06676 13.2273 1.77415 11.7358C2.49006 10.2443 3.47017 9.10227 4.71449 8.30966C5.95881 7.50852 7.36932 7.10795 8.94602 7.10795C10.1648 7.10795 11.1491 7.3125 11.8991 7.72159C12.6491 8.12216 13.233 8.59091 13.6506 9.12784C14.0767 9.66477 14.4048 10.1378 14.6349 10.5469H14.9162V7.36364H18.6619V27.4347C18.6619 29.1222 18.2699 30.5071 17.4858 31.5895C16.7017 32.6719 15.6406 33.473 14.3026 33.9929C12.973 34.5128 11.473 34.7727 9.80256 34.7727ZM9.7642 23.5355C10.8636 23.5355 11.7926 23.2798 12.5511 22.7685C13.3182 22.2486 13.8977 21.5071 14.2898 20.544C14.6903 19.5724 14.8906 18.4091 14.8906 17.054C14.8906 15.733 14.6946 14.5696 14.3026 13.5639C13.9105 12.5582 13.3352 11.7741 12.5767 11.2116C11.8182 10.6406 10.8807 10.3551 9.7642 10.3551C8.61364 10.3551 7.65483 10.6534 6.88778 11.25C6.12074 11.8381 5.54119 12.6392 5.14915 13.6534C4.76563 14.6676 4.57386 15.8011 4.57386 17.054C4.57386 18.3409 4.76989 19.4702 5.16193 20.4418C5.55398 21.4134 6.13352 22.1719 6.90057 22.7173C7.67614 23.2628 8.63068 23.5355 9.7642 23.5355ZM32.0597 27.3963C30.2188 27.3963 28.6122 26.9744 27.2401 26.1307C25.8679 25.2869 24.8026 24.1065 24.044 22.5895C23.2855 21.0724 22.9062 19.2997 22.9062 17.2713C22.9062 15.2344 23.2855 13.4531 24.044 11.9276C24.8026 10.402 25.8679 9.21733 27.2401 8.37358C28.6122 7.52983 30.2188 7.10795 32.0597 7.10795C33.9006 7.10795 35.5071 7.52983 36.8793 8.37358C38.2514 9.21733 39.3168 10.402 40.0753 11.9276C40.8338 13.4531 41.2131 15.2344 41.2131 17.2713C41.2131 19.2997 40.8338 21.0724 40.0753 22.5895C39.3168 24.1065 38.2514 25.2869 36.8793 26.1307C35.5071 26.9744 33.9006 27.3963 32.0597 27.3963ZM32.0724 24.1875C33.2656 24.1875 34.2543 23.8722 35.0384 23.2415C35.8224 22.6108 36.402 21.7713 36.777 20.723C37.1605 19.6747 37.3523 18.5199 37.3523 17.2585C37.3523 16.0057 37.1605 14.8551 36.777 13.8068C36.402 12.75 35.8224 11.902 35.0384 11.2628C34.2543 10.6236 33.2656 10.304 32.0724 10.304C30.8707 10.304 29.8736 10.6236 29.081 11.2628C28.2969 11.902 27.7131 12.75 27.3295 13.8068C26.9545 14.8551 26.767 16.0057 26.767 17.2585C26.767 18.5199 26.9545 19.6747 27.3295 20.723C27.7131 21.7713 28.2969 22.6108 29.081 23.2415C29.8736 23.8722 30.8707 24.1875 32.0724 24.1875ZM53.7511 27.3963C51.9102 27.3963 50.3036 26.9744 48.9315 26.1307C47.5593 25.2869 46.494 24.1065 45.7354 22.5895C44.9769 21.0724 44.5977 19.2997 44.5977 17.2713C44.5977 15.2344 44.9769 13.4531 45.7354 11.9276C46.494 10.402 47.5593 9.21733 48.9315 8.37358C50.3036 7.52983 51.9102 7.10795 53.7511 7.10795C55.592 7.10795 57.1985 7.52983 58.5707 8.37358C59.9428 9.21733 61.0082 10.402 61.7667 11.9276C62.5252 13.4531 62.9045 15.2344 62.9045 17.2713C62.9045 19.2997 62.5252 21.0724 61.7667 22.5895C61.0082 24.1065 59.9428 25.2869 58.5707 26.1307C57.1985 26.9744 55.592 27.3963 53.7511 27.3963ZM53.7639 24.1875C54.957 24.1875 55.9457 23.8722 56.7298 23.2415C57.5138 22.6108 58.0934 21.7713 58.4684 20.723C58.8519 19.6747 59.0437 18.5199 59.0437 17.2585C59.0437 16.0057 58.8519 14.8551 58.4684 13.8068C58.0934 12.75 57.5138 11.902 56.7298 11.2628C55.9457 10.6236 54.957 10.304 53.7639 10.304C52.5621 10.304 51.565 10.6236 50.7724 11.2628C49.9883 11.902 49.4045 12.75 49.021 13.8068C48.646 14.8551 48.4585 16.0057 48.4585 17.2585C48.4585 18.5199 48.646 19.6747 49.021 20.723C49.4045 21.7713 49.9883 22.6108 50.7724 23.2415C51.565 23.8722 52.5621 24.1875 53.7639 24.1875ZM75.4041 34.7727C73.8445 34.7727 72.5021 34.5682 71.3771 34.1591C70.2607 33.75 69.3487 33.2088 68.6413 32.5355C67.9339 31.8622 67.4055 31.125 67.0561 30.3239L70.3416 28.9688C70.5717 29.3438 70.8786 29.7401 71.2621 30.1577C71.6541 30.5838 72.1825 30.946 72.8473 31.2443C73.5206 31.5426 74.3857 31.6918 75.4425 31.6918C76.8913 31.6918 78.0888 31.3381 79.0348 30.6307C79.9808 29.9318 80.4538 28.8153 80.4538 27.2812V23.4205H80.2109C79.9808 23.8381 79.6484 24.3026 79.2138 24.8139C78.7876 25.3253 78.1996 25.7685 77.4496 26.1435C76.6996 26.5185 75.7237 26.706 74.522 26.706C72.9709 26.706 71.5732 26.3437 70.3288 25.6193C69.093 24.8864 68.1129 23.8082 67.3885 22.3849C66.6726 20.9531 66.3146 19.1932 66.3146 17.1051C66.3146 15.017 66.6683 13.2273 67.3757 11.7358C68.0916 10.2443 69.0717 9.10227 70.3161 8.30966C71.5604 7.50852 72.9709 7.10795 74.5476 7.10795C75.7663 7.10795 76.7507 7.3125 77.5007 7.72159C78.2507 8.12216 78.8345 8.59091 79.2521 9.12784C79.6783 9.66477 80.0064 10.1378 80.2365 10.5469H80.5178V7.36364H84.2635V27.4347C84.2635 29.1222 83.8714 30.5071 83.0874 31.5895C82.3033 32.6719 81.2422 33.473 79.9041 33.9929C78.5746 34.5128 77.0746 34.7727 75.4041 34.7727ZM75.3658 23.5355C76.4652 23.5355 77.3942 23.2798 78.1527 22.7685C78.9197 22.2486 79.4993 21.5071 79.8913 20.544C80.2919 19.5724 80.4922 18.4091 80.4922 17.054C80.4922 15.733 80.2962 14.5696 79.9041 13.5639C79.5121 12.5582 78.9368 11.7741 78.1783 11.2116C77.4197 10.6406 76.4822 10.3551 75.3658 10.3551C74.2152 10.3551 73.2564 10.6534 72.4893 11.25C71.7223 11.8381 71.1428 12.6392 70.7507 13.6534C70.3672 14.6676 70.1754 15.8011 70.1754 17.054C70.1754 18.3409 70.3714 19.4702 70.7635 20.4418C71.1555 21.4134 71.7351 22.1719 72.5021 22.7173C73.2777 23.2628 74.2322 23.5355 75.3658 23.5355ZM93.2124 0.818181V27H89.3899V0.818181H93.2124ZM106.818 27.3963C104.883 27.3963 103.217 26.983 101.819 26.1562C100.43 25.321 99.3562 24.1491 98.5977 22.6406C97.8477 21.1236 97.4727 19.3466 97.4727 17.3097C97.4727 15.2983 97.8477 13.5256 98.5977 11.9915C99.3562 10.4574 100.413 9.25994 101.768 8.39915C103.132 7.53835 104.725 7.10795 106.549 7.10795C107.657 7.10795 108.731 7.29119 109.771 7.65767C110.811 8.02415 111.744 8.59943 112.571 9.38352C113.397 10.1676 114.049 11.1861 114.527 12.4389C115.004 13.6832 115.243 15.196 115.243 16.9773V18.3324H99.6332V15.4688H111.497C111.497 14.4631 111.292 13.5724 110.883 12.7969C110.474 12.0128 109.899 11.3949 109.157 10.9432C108.424 10.4915 107.564 10.2656 106.575 10.2656C105.501 10.2656 104.564 10.5298 103.762 11.0582C102.97 11.5781 102.356 12.2599 101.922 13.1037C101.495 13.9389 101.282 14.8466 101.282 15.8267V18.0639C101.282 19.3764 101.512 20.4929 101.973 21.4134C102.441 22.3338 103.093 23.0369 103.929 23.5227C104.764 24 105.74 24.2386 106.856 24.2386C107.581 24.2386 108.241 24.1364 108.838 23.9318C109.434 23.7187 109.95 23.4034 110.385 22.9858C110.819 22.5682 111.152 22.0526 111.382 21.4389L115 22.0909C114.71 23.1562 114.19 24.0895 113.44 24.8906C112.699 25.6832 111.765 26.3011 110.64 26.7443C109.524 27.179 108.25 27.3963 106.818 27.3963ZM131.053 14.2798V17.5909H119.445V14.2798H131.053Z" fill="#0F6BE3"/>
<path d="M145.314 7.36364V10.4318H134.588V7.36364H145.314ZM137.464 2.65909H141.287V21.2344C141.287 21.9759 141.398 22.5341 141.619 22.9091C141.841 23.2756 142.126 23.527 142.476 23.6634C142.834 23.7912 143.222 23.8551 143.639 23.8551C143.946 23.8551 144.214 23.8338 144.445 23.7912C144.675 23.7486 144.854 23.7145 144.982 23.6889L145.672 26.8466C145.45 26.9318 145.135 27.017 144.726 27.1023C144.317 27.196 143.805 27.2472 143.192 27.2557C142.186 27.2727 141.249 27.0938 140.379 26.7188C139.51 26.3438 138.807 25.7642 138.27 24.9801C137.733 24.196 137.464 23.2116 137.464 22.027V2.65909Z" fill="#EC4537"/>
<path d="M157.814 27.3963C155.973 27.3963 154.366 26.9744 152.994 26.1307C151.622 25.2869 150.556 24.1065 149.798 22.5895C149.039 21.0724 148.66 19.2997 148.66 17.2713C148.66 15.2344 149.039 13.4531 149.798 11.9276C150.556 10.402 151.622 9.21733 152.994 8.37358C154.366 7.52983 155.973 7.10795 157.814 7.10795C159.654 7.10795 161.261 7.52983 162.633 8.37358C164.005 9.21733 165.071 10.402 165.829 11.9276C166.588 13.4531 166.967 15.2344 166.967 17.2713C166.967 19.2997 166.588 21.0724 165.829 22.5895C165.071 24.1065 164.005 25.2869 162.633 26.1307C161.261 26.9744 159.654 27.3963 157.814 27.3963ZM157.826 24.1875C159.02 24.1875 160.008 23.8722 160.792 23.2415C161.576 22.6108 162.156 21.7713 162.531 20.723C162.914 19.6747 163.106 18.5199 163.106 17.2585C163.106 16.0057 162.914 14.8551 162.531 13.8068C162.156 12.75 161.576 11.902 160.792 11.2628C160.008 10.6236 159.02 10.304 157.826 10.304C156.625 10.304 155.627 10.6236 154.835 11.2628C154.051 11.902 153.467 12.75 153.083 13.8068C152.708 14.8551 152.521 16.0057 152.521 17.2585C152.521 18.5199 152.708 19.6747 153.083 20.723C153.467 21.7713 154.051 22.6108 154.835 23.2415C155.627 23.8722 156.625 24.1875 157.826 24.1875Z" fill="#31A951"/>
<path d="M171.234 34.3636V7.36364H174.967V10.5469H175.286C175.508 10.1378 175.827 9.66477 176.245 9.12784C176.663 8.59091 177.242 8.12216 177.984 7.72159C178.725 7.3125 179.705 7.10795 180.924 7.10795C182.509 7.10795 183.924 7.50852 185.168 8.30966C186.413 9.1108 187.388 10.2656 188.096 11.7741C188.812 13.2827 189.17 15.098 189.17 17.2202C189.17 19.3423 188.816 21.1619 188.109 22.679C187.401 24.1875 186.43 25.3509 185.194 26.169C183.958 26.9787 182.548 27.3835 180.962 27.3835C179.769 27.3835 178.793 27.1832 178.035 26.7827C177.285 26.3821 176.697 25.9134 176.271 25.3764C175.844 24.8395 175.516 24.3622 175.286 23.9446H175.056V34.3636H171.234ZM174.979 17.1818C174.979 18.5625 175.18 19.7727 175.58 20.8125C175.981 21.8523 176.56 22.6662 177.319 23.2543C178.077 23.8338 179.006 24.1236 180.106 24.1236C181.248 24.1236 182.202 23.821 182.969 23.2159C183.737 22.6023 184.316 21.7713 184.708 20.723C185.109 19.6747 185.309 18.4943 185.309 17.1818C185.309 15.8864 185.113 14.723 184.721 13.6918C184.337 12.6605 183.758 11.8466 182.982 11.25C182.215 10.6534 181.256 10.3551 180.106 10.3551C178.998 10.3551 178.06 10.6406 177.293 11.2116C176.535 11.7827 175.96 12.5795 175.567 13.6023C175.175 14.625 174.979 15.8182 174.979 17.1818Z" fill="#F3A700"/>
</svg>
