<svg width="20" height="20" viewBox="0 0 20 20" fill="none" xmlns="http://www.w3.org/2000/svg">
<path d="M0.00124977 8.22794C0.00124977 6.11347 0.00124977 3.999 0.00124977 1.87953C0.00124977 1.11472 0.306231 0.514871 1.01119 0.184954C1.25617 0.0699825 1.55615 0.00999746 1.83114 0.00999746C3.79601 -0.00499879 5.76089 3.83609e-08 7.73077 0.00499879C8.72071 0.00999754 9.43566 0.664834 9.55565 1.63959C9.84064 3.984 10.1356 6.32842 10.4256 8.67783C10.6356 10.3774 10.8406 12.082 11.0506 13.7816C11.1256 14.3914 11.2106 15.0012 11.2855 15.6161C11.3005 15.7211 11.3105 15.831 11.3105 15.941C11.3005 16.2509 11.0456 16.4959 10.7406 16.4959C7.80076 16.4959 4.86095 16.4959 1.92113 16.4959C1.14118 16.4959 0.516218 16.2009 0.181239 15.4711C0.0562466 15.2012 0.0112495 14.8763 0.00624976 14.5764C-0.00374961 12.4619 0.00124977 10.3424 0.00124977 8.22794ZM4.46597 8.86279C4.98594 8.86279 5.48091 8.85779 5.98088 8.87278C6.04087 8.87278 6.13587 8.97776 6.15087 9.04774C6.27586 9.6076 6.38085 10.1725 6.50084 10.7323C6.57084 11.0622 6.84082 11.2422 7.1608 11.1972C7.51578 11.1472 7.70077 10.8373 7.62077 10.4224C7.2458 8.52787 6.87082 6.63834 6.49084 4.74381C6.41585 4.36391 6.20586 4.19395 5.81089 4.18895C5.47091 4.18395 5.12593 4.18395 4.78595 4.18895C4.36098 4.19395 4.18099 4.33892 4.09099 4.75381C3.976 5.29868 3.87101 5.84354 3.76102 6.3934C3.49603 7.72307 3.22105 9.05274 2.96606 10.3824C2.93107 10.5574 2.95107 10.7723 3.02606 10.9323C3.13105 11.1622 3.36604 11.2372 3.62102 11.1972C3.89601 11.1522 4.036 10.9673 4.09099 10.7073C4.22099 10.1075 4.34098 9.50263 4.46597 8.86279Z" fill="#222222"/>
<path d="M9.48065 20C10.1056 19.2902 10.6856 18.6253 11.2605 17.9605C11.5555 17.6206 11.8505 17.2857 12.1355 16.9358C12.4255 16.5708 12.5255 16.136 12.4705 15.6861C12.1755 13.2567 11.8655 10.8323 11.5655 8.40289C11.3755 6.87327 11.1855 5.34865 11.0006 3.81904C10.9906 3.73906 10.9906 3.65908 10.9806 3.5491C11.0806 3.5491 11.1605 3.5491 11.2405 3.5491C13.5154 3.5491 15.7903 3.5491 18.0601 3.5491C19.24 3.5491 20 4.30391 20 5.48362C20 9.68757 20 13.8965 20 18.1005C20 19.2552 19.265 19.995 18.1101 19.995C15.3203 19.995 12.5305 19.995 9.74063 19.995C9.67564 20 9.61064 20 9.48065 20ZM15.0553 12.6118C14.6153 12.9717 14.1954 13.3117 13.7804 13.6516C13.4804 13.9015 13.4304 14.2314 13.6554 14.5064C13.8654 14.7663 14.2054 14.7963 14.5003 14.5713C14.7803 14.3614 15.0453 14.1365 15.3153 13.9115C15.5003 13.7616 15.6803 13.6066 15.8453 13.4666C16.3502 13.8615 16.8252 14.2414 17.3152 14.6063C17.5851 14.8063 17.9251 14.7463 18.1151 14.4964C18.3101 14.2414 18.2751 13.9115 18.0251 13.6916C17.9251 13.6016 17.8151 13.5266 17.7101 13.4466C17.3652 13.1717 17.0252 12.9018 16.6802 12.6268C16.7152 12.5668 16.7252 12.5369 16.7452 12.5119C17.3052 11.817 17.7401 11.0572 18.0351 10.2124C18.0601 10.1375 18.1751 10.0675 18.2601 10.0525C18.6101 9.99249 18.8401 9.74755 18.8251 9.43263C18.8101 9.11771 18.5601 8.88277 18.2051 8.86777C18.0551 8.86277 17.9051 8.86777 17.7551 8.86777C17.3252 8.86777 16.8952 8.86777 16.4452 8.86777C16.4452 8.66782 16.4502 8.50286 16.4452 8.33791C16.4352 7.958 16.1902 7.70306 15.8453 7.70806C15.5103 7.71306 15.2803 7.958 15.2703 8.33291C15.2653 8.50286 15.2703 8.67782 15.2703 8.86777C14.6903 8.86777 14.1504 8.86277 13.6104 8.86777C13.2104 8.87277 12.9554 9.08272 12.9354 9.41764C12.9154 9.76755 13.1254 9.98749 13.5304 10.0525C13.5954 10.0625 13.6854 10.1225 13.7054 10.1774C14.0204 11.0472 14.4353 11.857 15.0553 12.6118Z" fill="#222222"/>
<path d="M6.84583 17.6656C7.87576 17.6656 8.8707 17.6656 9.91563 17.6656C9.83064 17.7606 9.77064 17.8355 9.71065 17.9055C9.18068 18.4904 8.64071 19.0702 8.12075 19.6651C7.99075 19.8151 7.89076 19.8051 7.74577 19.7101C7.33579 19.4301 7.06581 19.0502 6.97082 18.5654C6.91082 18.2754 6.88582 17.9805 6.84583 17.6656Z" fill="#222222"/>
<path d="M5.88585 7.69307C5.47088 7.69307 5.1009 7.69307 4.70093 7.69307C4.85592 6.91327 5.00591 6.15346 5.1609 5.38365C5.32589 5.32366 5.42088 5.33366 5.46088 5.55361C5.59087 6.26343 5.74086 6.96825 5.88585 7.69307Z" fill="#222222"/>
<path d="M16.9152 10.0575C16.5652 10.6473 16.2453 11.1872 15.9003 11.7721C15.4453 11.2272 15.1403 10.6773 14.9153 10.0575C15.5653 10.0575 16.1853 10.0575 16.9152 10.0575Z" fill="#222222"/>
</svg>
